<?xml version="1.0" encoding="utf-8"?>
<!-- Generator: Adobe Illustrator 16.0.0, SVG Export Plug-In . SVG Version: 6.00 Build 0)  -->
<!DOCTYPE svg PUBLIC "-//W3C//DTD SVG 1.1//EN" "http://www.w3.org/Graphics/SVG/1.1/DTD/svg11.dtd">
<svg version="1.1" id="Layer_1" xmlns="http://www.w3.org/2000/svg" xmlns:xlink="http://www.w3.org/1999/xlink" x="0px" y="0px"
	 width="32px" height="32px" viewBox="0 0 32 32" enable-background="new 0 0 32 32" xml:space="preserve">
<g>
	<path id="path102" fill="#E56B6A" d="M6.408,27.262c5.42,4.591,13.488,4.656,19.002,0.076c1.771-1.471,3.135-3.269,4.049-5.338
		c2.324-5.187,1.511-11.124-2.123-15.496c-5.213-6.278-14.56-7.143-20.835-1.93C0.518,9.545-0.543,18.271,3.886,24.511L6.408,27.262
		z M24.781,16.828c-0.235,0.688-0.526,1.372-0.942,1.983c-0.104,0.152-0.189,0.318-0.307,0.461l-0.35,0.436
		c-0.109,0.152-0.244,0.281-0.375,0.414l-0.198,0.202l-0.097,0.099l-0.052,0.053L22.438,20.5c-0.004,0.01-0.023,0.021-0.021,0.024
		L21.955,20.9l-0.136,0.113c-0.04,0.027-0.065,0.036-0.097,0.059l-0.182,0.123l-0.182,0.127l-0.228,0.122
		c-0.16,0.079-0.308,0.184-0.474,0.242c-0.637,0.311-1.343,0.477-2.051,0.56c-1.429,0.178-2.91-0.161-4.171-0.863
		c-0.624-0.365-1.191-0.826-1.699-1.351l-0.373-0.453l-0.251-0.374c-0.166-0.277-0.332-0.594-0.453-0.913
		c-0.497-1.281-0.479-2.758,0.025-4.034c0.248-0.639,0.613-1.233,1.067-1.745l0.361-0.362l0.024-0.025
		c-0.007,0-0.016,0.008-0.023,0.013l0.06-0.049l0.122-0.095l0.235-0.196l0.358-0.236c0.145-0.069,0.278-0.158,0.428-0.221
		c1.173-0.537,2.568-0.531,3.727-0.02c0.585,0.25,1.104,0.619,1.534,1.075l0.042,0.038l0.02,0.024
		c-0.044-0.06,0.003-0.003-0.003-0.011l0.084,0.109l0.176,0.209c0.074,0.123,0.147,0.213,0.223,0.343
		c0.139,0.254,0.27,0.521,0.344,0.805c0.35,1.129,0.088,2.373-0.55,3.278c-0.081,0.111-0.174,0.216-0.26,0.328
		c-0.098,0.098-0.197,0.196-0.289,0.294c-0.065,0.056-0.238,0.204-0.327,0.261c-0.098,0.064-0.195,0.136-0.317,0.191
		c-0.454,0.249-0.971,0.369-1.472,0.359c-1.006,0.013-1.949-0.511-2.477-1.211c-0.073-0.102-0.152-0.205-0.213-0.299
		c-0.043-0.093-0.08-0.185-0.122-0.275l-0.07-0.138l-0.035-0.15c-0.024-0.104-0.052-0.204-0.076-0.307
		c-0.018-0.204-0.035-0.408-0.026-0.606c0.019-0.099,0.031-0.198,0.042-0.292l0.02-0.146l0.05-0.137
		c0.067-0.174,0.106-0.363,0.219-0.511c0.095-0.157,0.17-0.323,0.297-0.438c0.059-0.066,0.118-0.131,0.173-0.19l0.074-0.085
		l0.106-0.076c0.135-0.101,0.271-0.214,0.404-0.257c0.535-0.266,1.102-0.259,1.514-0.167c0.67,0.207,0.986,0.54,1.096,0.651
		c-0.093-0.117-0.378-0.48-1.062-0.757c-0.429-0.131-1.014-0.201-1.662,0.051c-0.173,0.054-0.305,0.153-0.454,0.244l-0.11,0.062
		c-0.062,0.047-0.076,0.07-0.117,0.103c-0.069,0.067-0.14,0.13-0.208,0.195c-0.153,0.127-0.256,0.297-0.379,0.467
		c-0.135,0.163-0.204,0.371-0.296,0.571l-0.068,0.152l-0.037,0.165c-0.025,0.11-0.054,0.225-0.076,0.339
		c-0.032,0.229-0.036,0.477-0.032,0.723c0.018,0.124,0.041,0.246,0.058,0.376l0.036,0.19l0.07,0.192
		c0.051,0.127,0.097,0.261,0.151,0.39c0.059,0.113,0.13,0.211,0.19,0.318c0.589,0.93,1.667,1.658,2.969,1.767
		c0.644,0.059,1.333-0.031,1.978-0.313c0.155-0.062,0.324-0.158,0.491-0.252c0.176-0.107,0.241-0.155,0.427-0.288
		c0.135-0.116,0.27-0.229,0.404-0.353c0.12-0.127,0.251-0.255,0.37-0.396c0.938-1.11,1.452-2.753,1.097-4.387
		c-0.069-0.408-0.22-0.805-0.391-1.194c-0.09-0.194-0.221-0.406-0.333-0.597l-0.153-0.225L21.01,11.42
		c-0.02-0.024,0.012,0.016-0.047-0.062l-0.076-0.094c-0.525-0.661-1.206-1.235-1.99-1.659c-1.565-0.853-3.576-1.066-5.424-0.405
		c-0.233,0.077-0.452,0.186-0.678,0.285c-0.23,0.113-0.475,0.259-0.701,0.39l-0.251,0.176l-0.13,0.086l-0.053,0.039l-0.089,0.068
		l-0.035,0.031c-0.183,0.157-0.366,0.314-0.552,0.476c-0.712,0.668-1.32,1.481-1.769,2.393c-0.901,1.818-1.138,4.035-0.535,6.118
		c0.15,0.524,0.346,1.018,0.604,1.528c0.139,0.255,0.302,0.545,0.442,0.764l0.188,0.28l0.098,0.139l0.046,0.067l0.024,0.036
		l0.009,0.01c0,0,0.01,0.011,0.072,0.092c0.664,0.835,1.449,1.59,2.35,2.221c1.809,1.233,4.042,1.943,6.323,1.878
		c0.843-0.027,1.696-0.135,2.527-0.353c-4.112,2.222-9.307,1.724-12.897-1.444l-0.164-0.15c-0.382-0.349-0.742-0.726-1.07-1.12
		c-2.566-3.089-3.209-7.147-2.072-10.717c0.022-0.053,0.042-0.108,0.065-0.162c0.085-0.261,0.244-0.489,0.362-0.744
		c0.229-0.514,0.561-0.98,0.875-1.477c0.687-0.941,1.463-1.883,2.487-2.683l0.231-0.192l0.122-0.097l0.078-0.048
		C9.475,7.027,9.578,6.96,9.679,6.892c0.096-0.068,0.197-0.141,0.295-0.211l0.398-0.215l0.4-0.219
		c0.13-0.08,0.281-0.122,0.418-0.186c0.285-0.115,0.569-0.259,0.872-0.332c1.191-0.396,2.5-0.575,3.833-0.494
		c1.33,0.083,2.686,0.426,3.941,1.041c0.304,0.169,0.641,0.299,0.921,0.507c0.292,0.2,0.611,0.366,0.878,0.605
		c0.271,0.233,0.578,0.433,0.822,0.7l0.393,0.383l0.095,0.095l0.052,0.046c0.061,0.074,0.004-0.002-0.036-0.058l0.219,0.272
		l0.44,0.543l0.237,0.358c0.166,0.192,0.319,0.553,0.492,0.842c0.287,0.63,0.547,1.288,0.671,1.987
		C25.323,13.945,25.216,15.436,24.781,16.828z"/>
</g>
</svg>
