<?xml version="1.0" encoding="utf-8"?>
<!-- Generator: Adobe Illustrator 16.0.0, SVG Export Plug-In . SVG Version: 6.00 Build 0)  -->
<!DOCTYPE svg PUBLIC "-//W3C//DTD SVG 1.1//EN" "http://www.w3.org/Graphics/SVG/1.1/DTD/svg11.dtd">
<svg version="1.1"
	 id="Layer_1" inkscape:version="0.48.4 r9939" sodipodi:docname="noun_project_12747.svg" xmlns:svg="http://www.w3.org/2000/svg" xmlns:rdf="http://www.w3.org/1999/02/22-rdf-syntax-ns#" xmlns:dc="http://purl.org/dc/elements/1.1/" xmlns:sodipodi="http://sodipodi.sourceforge.net/DTD/sodipodi-0.dtd" xmlns:cc="http://creativecommons.org/ns#" xmlns:inkscape="http://www.inkscape.org/namespaces/inkscape"
	 xmlns="http://www.w3.org/2000/svg" xmlns:xlink="http://www.w3.org/1999/xlink" x="0px" y="0px" width="100px" height="100px"
	 viewBox="0 0 100 100" enable-background="new 0 0 100 100" xml:space="preserve">
<sodipodi:namedview  inkscape:window-width="758" inkscape:window-height="745" inkscape:pageopacity="0" inkscape:window-x="0" inkscape:window-y="21" inkscape:current-layer="Layer_1" inkscape:window-maximized="0" inkscape:pageshadow="2" guidetolerance="10" objecttolerance="10" borderopacity="1" bordercolor="#666666" inkscape:zoom="2.36" showgrid="false" gridtolerance="10" id="namedview104" inkscape:cx="50" inkscape:cy="83.898305" pagecolor="#ffffff">
	</sodipodi:namedview>
<path id="path102" fill="#794695" d="M91.384,11.392C81.268-0.788,63.129-2.468,50.953,7.647
	c-11.61,9.645-13.668,26.576-5.073,38.688c-0.614,0.34-1.214,0.787-1.762,1.335L8.591,83.198c-2.205,2.204-2.784,5.233-1.286,6.731
	c1.498,1.497,4.526,0.92,6.731-1.285l35.527-35.528c0.455-0.455,0.822-0.948,1.135-1.453l0.075,0.009
	c10.519,8.907,26.174,9.034,36.871,0.146c3.436-2.853,6.082-6.341,7.858-10.356C100.012,31.399,98.434,19.877,91.384,11.392z
	 M86.424,31.426c-0.455,1.336-1.02,2.663-1.828,3.847c-0.199,0.296-0.367,0.62-0.595,0.896l-0.679,0.847
	c-0.213,0.295-0.473,0.544-0.727,0.8l-0.383,0.393L82.023,38.4l-0.099,0.104l-0.046,0.048c-0.007,0.018-0.046,0.038-0.04,0.045
	l-0.894,0.73l-0.264,0.22c-0.076,0.053-0.127,0.072-0.188,0.113l-0.354,0.24l-0.35,0.247l-0.443,0.238
	c-0.312,0.15-0.598,0.355-0.918,0.468c-1.236,0.604-2.604,0.924-3.979,1.087c-2.771,0.344-5.646-0.314-8.093-1.675
	c-1.211-0.711-2.312-1.604-3.297-2.623l-0.722-0.879l-0.491-0.723c-0.32-0.541-0.642-1.153-0.877-1.775
	c-0.966-2.484-0.931-5.35,0.047-7.827c0.482-1.239,1.19-2.392,2.071-3.385l0.701-0.702l0.047-0.05c-0.013,0-0.032,0.016-0.045,0.026
	l0.116-0.096l0.236-0.186l0.457-0.379l0.695-0.458c0.28-0.135,0.539-0.308,0.83-0.429c2.277-1.043,4.984-1.031,7.232-0.039
	c1.135,0.486,2.143,1.202,2.977,2.088l0.081,0.073l0.038,0.045c-0.085-0.115,0.006-0.005-0.004-0.019l0.162,0.212l0.339,0.405
	c0.146,0.239,0.289,0.413,0.432,0.664c0.271,0.494,0.524,1.011,0.669,1.565c0.678,2.189,0.17,4.603-1.068,6.359
	c-0.156,0.217-0.336,0.421-0.504,0.637c-0.19,0.19-0.381,0.381-0.56,0.572c-0.128,0.107-0.464,0.396-0.635,0.505
	c-0.19,0.125-0.38,0.262-0.617,0.371c-0.881,0.483-1.883,0.717-2.856,0.698c-1.951,0.022-3.781-0.991-4.804-2.351
	c-0.142-0.197-0.296-0.396-0.415-0.579c-0.085-0.18-0.156-0.359-0.236-0.533l-0.135-0.268l-0.068-0.292
	c-0.047-0.2-0.101-0.395-0.146-0.595c-0.035-0.396-0.068-0.791-0.052-1.175c0.036-0.193,0.062-0.388,0.082-0.569l0.038-0.282
	l0.097-0.264c0.131-0.338,0.206-0.706,0.425-0.994c0.184-0.304,0.33-0.624,0.577-0.85c0.112-0.127,0.226-0.253,0.336-0.368
	l0.146-0.165l0.205-0.147c0.262-0.196,0.525-0.415,0.783-0.498c1.039-0.517,2.137-0.504,2.939-0.323
	c1.3,0.4,1.912,1.045,2.123,1.261c-0.176-0.225-0.729-0.93-2.057-1.468c-0.832-0.255-1.967-0.39-3.225,0.1
	c-0.336,0.105-0.591,0.296-0.881,0.471l-0.214,0.123c-0.121,0.09-0.147,0.135-0.226,0.199c-0.133,0.13-0.269,0.253-0.404,0.378
	c-0.297,0.246-0.497,0.578-0.736,0.907c-0.261,0.314-0.395,0.719-0.572,1.106l-0.134,0.296l-0.071,0.32
	c-0.049,0.216-0.105,0.436-0.149,0.658c-0.063,0.446-0.068,0.927-0.063,1.402c0.036,0.242,0.08,0.477,0.115,0.729l0.068,0.369
	l0.138,0.375c0.097,0.246,0.188,0.504,0.292,0.757c0.116,0.219,0.253,0.409,0.369,0.617c1.143,1.805,3.238,3.217,5.763,3.427
	c1.249,0.115,2.585-0.059,3.835-0.608c0.303-0.121,0.629-0.305,0.954-0.488c0.341-0.207,0.468-0.301,0.831-0.559
	c0.258-0.226,0.521-0.445,0.782-0.683c0.235-0.25,0.489-0.495,0.718-0.771c1.822-2.154,2.817-5.342,2.13-8.513
	c-0.135-0.791-0.426-1.56-0.76-2.316c-0.174-0.378-0.427-0.788-0.647-1.159l-0.297-0.438l-0.152-0.222
	c-0.038-0.046,0.025,0.032-0.09-0.121l-0.148-0.181c-1.021-1.283-2.341-2.397-3.861-3.221c-3.039-1.654-6.939-2.068-10.527-0.784
	c-0.453,0.148-0.877,0.358-1.316,0.55c-0.447,0.22-0.92,0.503-1.359,0.759l-0.49,0.341l-0.252,0.167l-0.102,0.074l-0.173,0.133
	l-0.071,0.059c-0.354,0.306-0.709,0.611-1.07,0.923c-1.381,1.298-2.561,2.876-3.432,4.644c-1.746,3.529-2.207,7.829-1.037,11.871
	c0.291,1.019,0.672,1.976,1.17,2.966c0.27,0.494,0.586,1.058,0.86,1.482l0.364,0.543l0.189,0.268l0.09,0.132l0.047,0.07l0.016,0.02
	c0,0,0.018,0.02,0.139,0.178c1.289,1.618,2.812,3.083,4.558,4.308c3.511,2.393,7.844,3.773,12.271,3.643
	c1.635-0.052,3.291-0.26,4.902-0.683c-7.98,4.313-18.059,3.346-25.025-2.804l-0.32-0.291c-0.741-0.676-1.439-1.407-2.076-2.173
	c-4.98-5.993-6.228-13.868-4.02-20.794c0.042-0.104,0.081-0.209,0.124-0.315c0.166-0.507,0.475-0.949,0.704-1.444
	c0.444-0.998,1.086-1.902,1.697-2.867c1.333-1.826,2.84-3.653,4.825-5.204l0.449-0.375l0.237-0.187l0.151-0.093
	c0.193-0.119,0.392-0.249,0.588-0.38c0.186-0.131,0.382-0.273,0.572-0.41l0.774-0.416l0.776-0.427
	c0.252-0.155,0.545-0.235,0.812-0.358c0.555-0.223,1.104-0.504,1.692-0.646c2.312-0.767,4.851-1.114,7.438-0.957
	c2.58,0.161,5.211,0.826,7.649,2.02c0.588,0.328,1.241,0.579,1.786,0.985c0.57,0.386,1.188,0.71,1.704,1.174
	c0.528,0.454,1.122,0.84,1.598,1.359l0.757,0.742l0.186,0.184l0.1,0.092c0.117,0.142,0.008-0.005-0.072-0.114l0.426,0.527
	l0.854,1.054l0.46,0.696c0.321,0.374,0.619,1.073,0.954,1.633c0.559,1.222,1.062,2.499,1.301,3.857
	C87.477,25.831,87.268,28.723,86.424,31.426z"/>
</svg>
