<?xml version="1.0" encoding="UTF-8" standalone="no"?>
<svg
   xmlns:dc="http://purl.org/dc/elements/1.1/"
   xmlns:cc="http://creativecommons.org/ns#"
   xmlns:rdf="http://www.w3.org/1999/02/22-rdf-syntax-ns#"
   xmlns:svg="http://www.w3.org/2000/svg"
   xmlns="http://www.w3.org/2000/svg"
   xmlns:sodipodi="http://sodipodi.sourceforge.net/DTD/sodipodi-0.dtd"
   xmlns:inkscape="http://www.inkscape.org/namespaces/inkscape"
   version="1.1"
   x="0px"
   y="0px"
   width="200"
   height="200"
   viewBox="0 0 200 200"
   enable-background="new 0 0 100 100"
   xml:space="preserve"
   id="svg2"
   inkscape:version="0.48.4 r9939"
   sodipodi:docname="noun_project_12142_white.svg"><metadata
     id="metadata130"><rdf:RDF><cc:Work
         rdf:about=""><dc:format>image/svg+xml</dc:format><dc:type
           rdf:resource="http://purl.org/dc/dcmitype/StillImage" /><dc:title></dc:title></cc:Work></rdf:RDF></metadata><defs
     id="defs128" /><sodipodi:namedview
     pagecolor="#000000"
     bordercolor="#666666"
     borderopacity="1"
     objecttolerance="10"
     gridtolerance="10"
     guidetolerance="10"
     inkscape:pageopacity="0.39215686"
     inkscape:pageshadow="2"
     inkscape:window-width="742"
     inkscape:window-height="745"
     id="namedview126"
     showgrid="false"
     inkscape:zoom="0.59"
     inkscape:cx="-21.630589"
     inkscape:cy="215.96063"
     inkscape:window-x="0"
     inkscape:window-y="21"
     inkscape:window-maximized="0"
     inkscape:current-layer="svg2" /><g
     id="Your_Icon"
     style="fill:#ffffff;fill-opacity:1"
     transform="matrix(1.9475,0,0,1.9475,-31.739833,3.0134712)"><path
       stroke-miterlimit="10"
       d="M 55.094,39.972"
       id="path114"
       style="fill:#ffffff;fill-opacity:1;stroke:#010101;stroke-width:1.77320004;stroke-miterlimit:10"
       inkscape:connector-curvature="0" /><path
       d="M 64.185,74.335 63.919,74 H 63.896 C 64.072,69 64.358,51.197 57.715,44.057 55.857,42.06 53,40.85 51,40.85 v -0.032 c -3,0.021 -4.938,1.045 -6.803,3.077 -6.75,7.345 -6.331,25.751 -6.141,29.87 -3.071,2.248 -6.568,15.524 -7.25,18.229 l -0.299,1.16 1.178,0.094 c 0.067,0.005 3.125,0.079 7.455,0.344 L 40.68,100 h 19.291 l 1.434,-5.797 c 7.713,-0.259 8.536,-1.119 8.653,-2.301 0.357,-3.605 -5.235,-16.127 -5.873,-17.567 z M 47.254,92.156 c 0.083,-0.773 0.279,-2.083 0.573,-3.65 1.421,0.057 2.868,0.093 4.335,0.105 -0.02,0.278 0.008,0.548 -0.01,0.795 -0.1,1.418 -0.152,2.339 -0.152,2.906 0,0.005 0,0.009 0,0.013 -2,-0.045 -3.195,-0.101 -4.746,-0.169 z M 38.096,87.85 c 0.846,0.079 1.772,0.159 2.769,0.238 -0.317,1.452 -0.553,2.742 -0.65,3.71 -0.965,-0.057 -1.869,-0.113 -2.71,-0.168 -0.016,-0.896 0.212,-2.224 0.591,-3.78 z m 25.777,-9.151 c -0.301,0.084 -0.614,0.291 -0.94,0.364 L 62.248,76 h 0.374 c 0.395,1 0.819,1.654 1.251,2.699 z M 49.176,81.53 c 1.048,0.029 2.112,0.046 3.176,0.046 0.104,0 0.209,-0.003 0.314,-0.003 -0.132,1.762 -0.243,3.27 -0.338,4.557 l -4.079,0.04 c 0.252,-1.284 0.522,-2.631 0.784,-3.932 0.047,-0.232 0.095,-0.472 0.143,-0.708 z m 5.673,-2.079 C 54.934,78.311 55.026,77 55.127,76 h 2.111 c 0.045,1 0.108,2.078 0.179,3.532 L 54.849,79.451 z M 53.121,76 c -0.101,1 -0.194,2.332 -0.28,3.484 l -3.217,0.181 C 49.877,78.395 50.127,77 50.365,76 h 2.756 z m -5.972,5.457 c -0.025,0.125 -0.051,0.255 -0.076,0.379 -0.327,1.626 -0.617,3.076 -0.867,4.354 l -2.852,0.028 c 0.38,-1.542 0.82,-3.215 1.279,-4.888 0.812,0.048 1.655,0.091 2.516,0.127 z m 7.187,4.652 c 0.094,-1.281 0.205,-2.791 0.338,-4.564 0.968,-0.024 1.921,-0.067 2.854,-0.127 0.073,1.537 0.149,3.146 0.22,4.658 l -3.412,0.033 z m 5.185,-4.856 c 0.641,-0.066 1.266,-0.141 1.865,-0.23 l 1.075,5.006 -2.714,0.028 c -0.07,-1.558 -0.149,-3.222 -0.226,-4.804 z m 1.072,-2.152 -1.174,0.271 C 59.349,77.945 59.287,77 59.24,76 h 0.961 l 0.762,3.299 c -0.123,0.017 -0.244,-0.215 -0.37,-0.198 z M 48.329,76 c -0.243,1 -0.497,2.297 -0.752,3.572 L 45.657,79.48 C 45.502,79.471 45.344,79.652 45.189,79.644 45.568,78.304 45.946,77 46.302,76 h 2.027 z m -5.738,5.197 c -0.438,1.604 -0.88,3.291 -1.266,4.887 -0.966,-0.074 -1.874,-0.149 -2.705,-0.225 0.443,-1.57 0.975,-3.243 1.518,-4.854 0.755,0.063 1.577,0.129 2.453,0.192 z m 21.867,4.597 -1.104,-5.142 c 0.445,-0.1 0.874,-0.207 1.278,-0.326 0.669,1.684 1.32,3.409 1.876,5.011 -0.642,0.173 -1.325,0.325 -2.05,0.457 z M 44.214,76 c -0.293,1 -0.666,2.02 -1.069,3.453 -0.822,-0.057 -1.601,0.01 -2.324,-0.05 C 41.286,78.079 41.73,77 42.108,76 h 2.106 z m -6.134,4.816 c -0.526,1.581 -1.05,3.254 -1.487,4.852 -0.745,-0.075 -1.369,-0.143 -1.873,-0.198 0.55,-1.746 1.114,-3.389 1.664,-4.828 0.44,0.047 1.012,0.108 1.696,0.174 z m 4.798,7.42 c 0.932,0.064 1.904,0.123 2.904,0.175 -0.299,1.613 -0.495,2.83 -0.574,3.655 -1.032,-0.05 -2.035,-0.103 -3.008,-0.156 0.091,-0.87 0.334,-2.15 0.678,-3.674 z m 11.275,0.374 c 1.248,-0.011 2.487,-0.042 3.704,-0.101 0.079,1.792 0.137,3.227 0.152,3.897 -0.177,10e-4 -0.34,0.003 -0.522,0.003 -1.161,0 -2.367,-0.014 -3.597,-0.038 0.043,-0.646 0.122,-1.792 0.263,-3.761 z m 5.856,3.775 c -0.016,-0.701 -0.074,-2.17 -0.155,-3.998 1.05,-0.08 2.068,-0.184 3.047,-0.312 l 0.891,4.148 c -1.013,0.073 -2.256,0.131 -3.783,0.162 z M 39.043,76 h 0.924 c -0.341,1 -0.765,1.814 -1.213,3.098 -0.6,-0.055 -1.135,0.017 -1.578,-0.028 C 37.877,77.461 38.524,76 39.043,76 z m -4.926,11.438 c 0.499,0.058 1.153,0.131 1.973,0.216 -0.345,1.487 -0.568,2.823 -0.588,3.844 -1.004,-0.069 -1.855,-0.13 -2.471,-0.176 0.341,-1.299 0.707,-2.606 1.086,-3.884 z m 6.947,6.285 C 43.266,93.846 46,94.127 48,94.225 V 98 H 42.262 L 41.064,93.723 z M 58.398,98 H 50 v -3.702 c 3,0.081 5.055,0.133 7.33,0.133 0.65,0 1.341,-0.161 1.926,-0.169 L 58.398,98 z m 6.771,-5.901 0.613,-0.134 -0.901,-4.2 c 0.8,-0.147 1.549,-0.322 2.26,-0.517 0.577,1.841 0.948,3.369 0.937,4.217 -0.238,0.143 -0.938,0.418 -2.909,0.634 z"
       id="path116"
       style="fill:#ffffff;fill-opacity:1"
       inkscape:connector-curvature="0" /><path
       d="m 49.314,16.812 c 0,0.987 -0.944,1.786 -1.92,1.786 -0.977,0 -1.621,-0.798 -1.621,-1.786 0,-0.988 0.943,-1.789 1.92,-1.789 0.979,0 1.621,0.801 1.621,1.789 z"
       id="path118"
       style="fill:#ffffff;fill-opacity:1"
       inkscape:connector-curvature="0" /><path
       d="m 59.304,16.812 c 0,0.987 -0.944,1.786 -1.92,1.786 -0.977,0 -1.617,-0.798 -1.617,-1.786 0,-0.988 0.942,-1.789 1.918,-1.789 0.976,0 1.619,0.801 1.619,1.789 z"
       id="path120"
       style="fill:#ffffff;fill-opacity:1"
       inkscape:connector-curvature="0" /><path
       d="m 57.086,25.989 c 0,1.493 -2.127,2.703 -4.33,2.703 -2.203,0 -3.65,-1.21 -3.65,-2.703 0,-1.492 2.125,-0.447 4.328,-0.447 2.203,0 3.652,-1.045 3.652,0.447 z"
       id="path122"
       style="fill:#ffffff;fill-opacity:1"
       inkscape:connector-curvature="0" /><path
       d="m 70.254,14.365 -0.229,0.143 c 0,0 0.626,-1.777 -1.304,-1.977 -0.791,-0.083 -1.299,0.066 -1.638,0.27 C 66.634,11.794 66.08,10.583 65.409,9.117 60.218,-2.249 54.357,1.162 52.472,2.698 50.585,1.162 44.725,-2.249 39.533,9.116 c -0.673,1.466 -1.225,2.677 -1.675,3.684 -0.34,-0.203 -0.847,-0.353 -1.635,-0.27 -1.932,0.2 -1.308,1.977 -1.308,1.977 l -0.227,-0.143 c -2.95,-1.349 -7.04,5.591 -6.727,10.868 0.312,5.276 8.46,4.761 8.46,4.761 0,0 0.936,-0.144 -1.336,-2.811 -2.216,-2.606 0.326,-8.588 0.444,-8.864 0.005,0.021 0.007,0.034 0.013,0.059 0.141,0.745 0.935,1.148 1.844,1.119 0.077,-0.002 0.146,-0.028 0.218,-0.049 -0.04,0.415 -0.072,0.831 -0.072,1.252 0,8.807 5.859,15.198 13.933,15.198 8.605,0 16.154,-7.102 16.154,-15.198 0,-0.409 -0.025,-0.806 -0.05,-1.203 0.901,0.024 1.69,-0.378 1.832,-1.119 0.005,-0.025 0.006,-0.038 0.009,-0.059 0.122,0.276 2.662,6.257 0.446,8.864 -2.271,2.667 -1.336,2.811 -1.336,2.811 0,0 8.147,0.515 8.463,-4.761 0.311,-5.276 -3.777,-12.216 -6.729,-10.867 z m -18.89,18.492 c -6.276,0 -10.832,-5.113 -10.832,-12.157 0,-6.362 6.317,-12.155 13.255,-12.155 6.276,0 10.832,5.112 10.832,12.155 0,6.362 -6.317,12.157 -13.255,12.157 z"
       id="path124"
       style="fill:#ffffff;fill-opacity:1"
       inkscape:connector-curvature="0" /></g></svg>