<svg xmlns="http://www.w3.org/2000/svg" xmlns:xlink="http://www.w3.org/1999/xlink" version="1.1" x="0px" y="0px" width="100px" height="100px" viewBox="0 0 100 100" enable-background="new 0 0 100 100" xml:space="preserve">
<g id="Captions">
	<rect x="-192" width="185" height="99"/>
	<rect y="-36" width="100" height="30"/>
	<text transform="matrix(1 0 0 1 66 -19.5)" fill="#000000" font-family="'Helvetica'" font-size="2.4">http://thenounproject.com</text>
	<text transform="matrix(1 0 0 1 7.166 -24.5)"><tspan x="0" y="0" fill="#000000" font-family="'Helvetica-Bold'" font-size="6.1578">The Noun Project</tspan><tspan x="1.12" y="4.8" fill="#000000" font-family="'Helvetica-Bold'" font-size="4">Icon Template</tspan></text>
	<text transform="matrix(1 0 0 1 -178.5 10.5)" fill="#000000" font-family="'Helvetica-Bold'" font-size="6.1578">Reminders</text>
	<line fill="#000000" stroke="#FFFFFF" stroke-miterlimit="10" x1="8" y1="-14.5" x2="18" y2="-14.5"/>
	<line fill="#000000" stroke="#FFFFFF" stroke-miterlimit="10" x1="-179" y1="16.5" x2="-162" y2="16.5"/>
	<g>
		<g>
			<g>
				<rect x="-170.802" y="31.318" fill="#000000" width="8.721" height="8.642"/>
				<path fill="#000000" d="M-164.455,42.312h4.747v-4.703h-4.747V42.312z M-159.266,42.749h-5.63V37.17h5.63V42.749      L-159.266,42.749z M-166.221,44.062h8.279v-8.203h-8.279V44.062L-166.221,44.062z M-157.5,44.5h-9.163v-9.079h9.163V44.5      L-157.5,44.5z"/>
				<polygon fill="#000000" points="-166.149,44.133 -166.292,43.991 -158.013,35.787 -157.871,35.929     "/>
			</g>
		</g>
	</g>
	<rect x="-179" y="58" fill="none" width="35" height="32.5"/>
	<text transform="matrix(1 0 0 1 -179 60.1572)"><tspan x="0" y="0" fill="#000000" font-family="'Helvetica-Bold'" font-size="3">Strokes</tspan><tspan x="0" y="5" fill="#000000" font-family="'Helvetica'" font-size="2.4">Try to keep strokes at 4px</tspan><tspan x="0" y="10" fill="#000000" font-family="'Helvetica'" font-size="2.4">Minimum stroke weight is 2px</tspan><tspan x="0" y="14.5" fill="#000000" font-family="'Helvetica'" font-size="2.4">For thicker strokes use even </tspan><tspan x="0" y="17.5" fill="#000000" font-family="'Helvetica'" font-size="2.4">numbers: 6px, 8px etc.</tspan><tspan x="0" y="22" fill="#000000" font-family="'Helvetica-Bold'" font-size="2.4">Remember to expand strokes </tspan><tspan x="0" y="25" fill="#000000" font-family="'Helvetica-Bold'" font-size="2.4">before saving as an SVG </tspan></text>
	<rect x="-136.5" y="58" fill="none" width="35" height="32.5"/>
	<text transform="matrix(1 0 0 1 -136.5 60.1572)"><tspan x="0" y="0" fill="#000000" font-family="'Helvetica-Bold'" font-size="3">Size</tspan><tspan x="0" y="5" fill="#000000" font-family="'Helvetica'" font-size="2.4">Cannot be wider or taller than </tspan><tspan x="0" y="8.5" fill="#000000" font-family="'Helvetica'" font-size="2.4">100px (artboard size)</tspan><tspan x="0" y="13.5" fill="#000000" font-family="'Helvetica'" font-size="2.4">Scale your icon to fill as much of </tspan><tspan x="0" y="16.5" fill="#000000" font-family="'Helvetica'" font-size="2.4">the artboard as possible</tspan></text>
	<rect x="-94" y="58" fill="none" width="35" height="32.5"/>
	<text transform="matrix(1 0 0 1 -94 60.1572)"><tspan x="0" y="0" fill="#000000" font-family="'Helvetica-Bold'" font-size="3">Ungroup</tspan><tspan x="0" y="5" fill="#000000" font-family="'Helvetica'" font-size="2.4">If your design has more than one </tspan><tspan x="0" y="8" fill="#000000" font-family="'Helvetica'" font-size="2.4">shape, make sure to ungroup</tspan></text>
	<rect x="-50" y="58" fill="none" width="35" height="32.5"/>
	<text transform="matrix(1 0 0 1 -50 60.1572)"><tspan x="0" y="0" fill="#000000" font-family="'Helvetica-Bold'" font-size="3">Save as</tspan><tspan x="0" y="5" fill="#000000" font-family="'Helvetica'" font-size="2.4">Save as .SVG and make sure </tspan><tspan x="0" y="8" fill="#000000" font-family="'Helvetica'" font-size="2.4">&#8220;Use Artboards&#8221; is checked</tspan></text>
	<text transform="matrix(1.0074 0 0 1 -125.542 30.5933)" fill="#000000" font-family="'Helvetica'" font-size="2.5731">100px</text>
	<text transform="matrix(1.0074 0 0 1 -41 39)" fill="#000000" font-family="'Helvetica-Bold'" font-size="5.1462">.SVG</text>
	<rect x="-126.514" y="34.815" fill="#000000" width="10.261" height="10.185"/>
	<rect x="-126.477" y="31.766" fill="#000000" width="0.522" height="2.337"/>
	<rect x="-116.812" y="31.766" fill="#000000" width="0.523" height="2.337"/>
	<rect x="-127" y="32.337" fill="#000000" width="11.233" height="0.572"/>
	<g>
		<rect x="-83.805" y="33.844" fill="#000000" width="10.305" height="10.156"/>
		<rect x="-76.809" y="28.707" fill="#000000" width="3.308" height="3.261"/>
	</g>
	<rect x="-178.5" y="22.5" fill="#000000" stroke="#FFFFFF" stroke-miterlimit="10" width="30" height="30"/>
	<rect x="-136.5" y="22.5" fill="#000000" stroke="#FFFFFF" stroke-miterlimit="10" width="30" height="30"/>
	<rect x="-93.5" y="22.5" fill="#000000" stroke="#FFFFFF" stroke-miterlimit="10" width="30" height="30"/>
	<rect x="-49.5" y="22.5" fill="#000000" stroke="#FFFFFF" stroke-miterlimit="10" width="30" height="30"/>
</g>
<g id="Your_Icon">
	<path fill="#000000" stroke="#010101" stroke-width="1.7732" stroke-miterlimit="10" d="M55.094,39.972"/>
	<path fill="#000000" d="M64.185,74.335L63.919,74h-0.023c0.176-5,0.462-22.803-6.181-29.943C55.857,42.06,53,40.85,51,40.85v-0.032   c-3,0.021-4.938,1.045-6.803,3.077c-6.75,7.345-6.331,25.751-6.141,29.87c-3.071,2.248-6.568,15.524-7.25,18.229l-0.299,1.16   l1.178,0.094c0.067,0.005,3.125,0.079,7.455,0.344L40.68,100h19.291l1.434-5.797c7.713-0.259,8.536-1.119,8.653-2.301   C70.415,88.297,64.823,75.775,64.185,74.335z M47.254,92.156c0.083-0.773,0.279-2.083,0.573-3.65   c1.421,0.057,2.868,0.093,4.335,0.105c-0.02,0.278,0.008,0.548-0.01,0.795C52.052,90.824,52,91.745,52,92.312   c0,0.005,0,0.009,0,0.013C50,92.28,48.805,92.224,47.254,92.156z M38.096,87.85c0.846,0.079,1.772,0.159,2.769,0.238   c-0.317,1.452-0.553,2.742-0.65,3.71c-0.965-0.057-1.869-0.113-2.71-0.168C37.489,90.734,37.717,89.406,38.096,87.85z    M63.873,78.699c-0.301,0.084-0.614,0.291-0.94,0.364L62.248,76h0.374C63.017,77,63.441,77.654,63.873,78.699z M49.176,81.53   c1.048,0.029,2.112,0.046,3.176,0.046c0.104,0,0.209-0.003,0.314-0.003c-0.132,1.762-0.243,3.27-0.338,4.557l-4.079,0.04   c0.252-1.284,0.522-2.631,0.784-3.932C49.08,82.006,49.128,81.766,49.176,81.53z M54.849,79.451C54.934,78.311,55.026,77,55.127,76   h2.111c0.045,1,0.108,2.078,0.179,3.532L54.849,79.451z M53.121,76c-0.101,1-0.194,2.332-0.28,3.484l-3.217,0.181   C49.877,78.395,50.127,77,50.365,76H53.121z M47.149,81.457c-0.025,0.125-0.051,0.255-0.076,0.379   c-0.327,1.626-0.617,3.076-0.867,4.354l-2.852,0.028c0.38-1.542,0.82-3.215,1.279-4.888C45.445,81.378,46.288,81.421,47.149,81.457   z M54.336,86.109c0.094-1.281,0.205-2.791,0.338-4.564c0.968-0.024,1.921-0.067,2.854-0.127c0.073,1.537,0.149,3.146,0.22,4.658   L54.336,86.109z M59.521,81.253c0.641-0.066,1.266-0.141,1.865-0.23l1.075,5.006l-2.714,0.028   C59.677,84.499,59.598,82.835,59.521,81.253z M60.593,79.101l-1.174,0.271C59.349,77.945,59.287,77,59.24,76h0.961l0.762,3.299   C60.84,79.316,60.719,79.084,60.593,79.101z M48.329,76c-0.243,1-0.497,2.297-0.752,3.572l-1.92-0.092   c-0.155-0.009-0.313,0.172-0.468,0.164C45.568,78.304,45.946,77,46.302,76H48.329z M42.591,81.197   c-0.438,1.604-0.88,3.291-1.266,4.887c-0.966-0.074-1.874-0.149-2.705-0.225c0.443-1.57,0.975-3.243,1.518-4.854   C40.893,81.068,41.715,81.134,42.591,81.197z M64.458,85.794l-1.104-5.142c0.445-0.1,0.874-0.207,1.278-0.326   c0.669,1.684,1.32,3.409,1.876,5.011C65.866,85.51,65.183,85.662,64.458,85.794z M44.214,76c-0.293,1-0.666,2.02-1.069,3.453   c-0.822-0.057-1.601,0.01-2.324-0.05C41.286,78.079,41.73,77,42.108,76H44.214z M38.08,80.816c-0.526,1.581-1.05,3.254-1.487,4.852   c-0.745-0.075-1.369-0.143-1.873-0.198c0.55-1.746,1.114-3.389,1.664-4.828C36.824,80.689,37.396,80.75,38.08,80.816z    M42.878,88.236c0.932,0.064,1.904,0.123,2.904,0.175c-0.299,1.613-0.495,2.83-0.574,3.655c-1.032-0.05-2.035-0.103-3.008-0.156   C42.291,91.04,42.534,89.76,42.878,88.236z M54.153,88.61c1.248-0.011,2.487-0.042,3.704-0.101   c0.079,1.792,0.137,3.227,0.152,3.897c-0.177,0.001-0.34,0.003-0.522,0.003c-1.161,0-2.367-0.014-3.597-0.038   C53.933,91.725,54.012,90.579,54.153,88.61z M60.009,92.385c-0.016-0.701-0.074-2.17-0.155-3.998   c1.05-0.08,2.068-0.184,3.047-0.312l0.891,4.148C62.779,92.296,61.536,92.354,60.009,92.385z M39.043,76h0.924   c-0.341,1-0.765,1.814-1.213,3.098c-0.6-0.055-1.135,0.017-1.578-0.028C37.877,77.461,38.524,76,39.043,76z M34.117,87.438   c0.499,0.058,1.153,0.131,1.973,0.216c-0.345,1.487-0.568,2.823-0.588,3.844c-1.004-0.069-1.855-0.13-2.471-0.176   C33.372,90.023,33.738,88.716,34.117,87.438z M41.064,93.723C43.266,93.846,46,94.127,48,94.225V98h-5.738L41.064,93.723z    M58.398,98H50v-3.702c3,0.081,5.055,0.133,7.33,0.133c0.65,0,1.341-0.161,1.926-0.169L58.398,98z M65.169,92.099l0.613-0.134   l-0.901-4.2c0.8-0.147,1.549-0.322,2.26-0.517c0.577,1.841,0.948,3.369,0.937,4.217C67.84,91.608,67.14,91.883,65.169,92.099z"/>
	<path fill="#000000" d="M49.314,16.812c0,0.987-0.944,1.786-1.92,1.786c-0.977,0-1.621-0.798-1.621-1.786   c0-0.988,0.943-1.789,1.92-1.789C48.672,15.023,49.314,15.824,49.314,16.812z"/>
	<path fill="#000000" d="M59.304,16.812c0,0.987-0.944,1.786-1.92,1.786c-0.977,0-1.617-0.798-1.617-1.786   c0-0.988,0.942-1.789,1.918-1.789C58.661,15.023,59.304,15.824,59.304,16.812z"/>
	<path fill="#000000" d="M57.086,25.989c0,1.493-2.127,2.703-4.33,2.703s-3.65-1.21-3.65-2.703c0-1.492,2.125-0.447,4.328-0.447   S57.086,24.497,57.086,25.989z"/>
	<path fill="#000000" d="M70.254,14.365l-0.229,0.143c0,0,0.626-1.777-1.304-1.977c-0.791-0.083-1.299,0.066-1.638,0.27   c-0.449-1.007-1.003-2.218-1.674-3.684C60.218-2.249,54.357,1.162,52.472,2.698c-1.887-1.536-7.747-4.947-12.939,6.418   c-0.673,1.466-1.225,2.677-1.675,3.684c-0.34-0.203-0.847-0.353-1.635-0.27c-1.932,0.2-1.308,1.977-1.308,1.977l-0.227-0.143   c-2.95-1.349-7.04,5.591-6.727,10.868c0.312,5.276,8.46,4.761,8.46,4.761s0.936-0.144-1.336-2.811   c-2.216-2.606,0.326-8.588,0.444-8.864c0.005,0.021,0.007,0.034,0.013,0.059c0.141,0.745,0.935,1.148,1.844,1.119   c0.077-0.002,0.146-0.028,0.218-0.049c-0.04,0.415-0.072,0.831-0.072,1.252c0,8.807,5.859,15.198,13.933,15.198   c8.605,0,16.154-7.102,16.154-15.198c0-0.409-0.025-0.806-0.05-1.203c0.901,0.024,1.69-0.378,1.832-1.119   c0.005-0.025,0.006-0.038,0.009-0.059c0.122,0.276,2.662,6.257,0.446,8.864c-2.271,2.667-1.336,2.811-1.336,2.811   s8.147,0.515,8.463-4.761C77.294,19.956,73.206,13.016,70.254,14.365z M51.364,32.857c-6.276,0-10.832-5.113-10.832-12.157   c0-6.362,6.317-12.155,13.255-12.155c6.276,0,10.832,5.112,10.832,12.155C64.619,27.062,58.302,32.857,51.364,32.857z"/>
</g>
</svg>