<?xml version="1.0" encoding="utf-8"?>
<!-- Generator: Adobe Illustrator 16.0.0, SVG Export Plug-In . SVG Version: 6.00 Build 0)  -->
<!DOCTYPE svg PUBLIC "-//W3C//DTD SVG 1.1//EN" "http://www.w3.org/Graphics/SVG/1.1/DTD/svg11.dtd">
<svg version="1.1" id="Layer_1" xmlns="http://www.w3.org/2000/svg" xmlns:xlink="http://www.w3.org/1999/xlink" x="0px" y="0px"
	 width="100px" height="100px" viewBox="0 0 100 100" enable-background="new 0 0 100 100" xml:space="preserve">
<g id="Captions">
</g>
<g id="Your_Icon">
	<path d="M81.775,48.962c-0.144-0.082-0.293-0.152-0.448-0.209c-0.069-0.026-6.984-2.635-11.027-8.182
		c-2.362-3.241-5.873-6.074-9.591-9.073c-4.118-3.323-8.377-6.759-11.229-10.891c-1.768-2.558-3.026-5-4.138-7.156
		c-2.06-3.998-4.676-8.285-7.61-7.451c-1.117,0.317-2.308,0.361-3.507,1.105c-2.508,1.555-4.133,4.244-4.575,7.571
		c-0.696,5.228,1.6,11.255,6.144,16.123c2.959,3.17,3.438,5.646,2.948,6.802c-0.51,1.207-2.345,1.957-4.907,2.007
		c-0.894,0.018-1.799,0.024-2.7,0.031c-6.439,0.049-12.521,0.094-15.917,3.63c-1.551,1.616-2.295,3.715-2.211,6.238
		c0.109,3.292,1.131,5.511,2.56,6.896c-0.546,0.865-0.98,1.873-1.193,3.037c-0.516,2.828,0.424,5.742,2.795,8.688
		c-0.722,1.229-1.319,2.854-1.18,4.774c0.188,2.574,1.619,4.892,4.262,6.9c0.042,1.883,0.476,4.744,2.369,7.316
		c1.969,2.676,4.956,4.322,8.878,4.895c1.739,0.256,3.571,0.381,5.603,0.381c4.923,0,10.096-0.762,14.659-1.434
		c3.879-0.57,7.54-1.109,10.442-1.109h0.679c7.508,0,12.04,0,14.189-6.324c0.221-0.645,0.832-2.024,1.539-3.62
		C82.947,70.121,90.208,53.742,81.775,48.962z M37.468,12.337c0.035-0.022-1.75,3.171-1.72,3.154
		c1.084-4.325,3.356-0.711,4.125,0.782c1.137,2.205,3.356,5.756,6.491,9.326c3.36,4.864,6.231,7.26,10.481,10.69
		c3.393,2.738,6.598,5.323,8.481,7.909c4.604,6.319,11.844,9.516,13.521,10.192c0.646,0.547,1.238,2.803-0.224,8.273
		c-1.365,5.107-3.938,10.91-5.64,14.748c-0.832,1.875-1.432,3.23-1.739,4.135c-0.647,1.91-0.731,2.152-8.365,2.152h-0.679
		c-3.354,0-7.23,0.572-11.338,1.178c-4.567,0.67-9.29,1.365-13.764,1.365c-1.729,0-3.271-0.102-4.711-0.314
		c-4.005-0.584-6.286-3.224-6.722-5.095l5.504,0.295c1.698,0,3.662-1.261,3.662-2.962c0-1.696-3.192-3.007-4.891-3.007l-6.609,0.174
		c-1.339-0.941-1.14-2.074-1.206-2.858c-0.043-0.492,0.194-1.004,0.462-1.41H35.26c1.699,0,4.24-1.533,4.24-3.231
		c0-1.699-2.541-2.922-4.24-2.922H22.513c-1.542-1.705-1.586-2.191-2.089-4.347c0.188-1.094,1.309-1.985,2.038-2.434H38.19
		c1.699,0,4.31-1.432,4.31-3.131s-2.61-3.021-4.31-3.021H22.442c-0.188-0.039,0.007-0.039-0.188-0.039
		c-0.343,0-2.044-0.313-1.919-0.376c-0.002,0-0.988-0.678-1.016-0.913c-0.202-1.665-0.046-0.524-0.163-1.345
		c-0.035-1.072,0.249-1.511,0.5-1.772c1.598-1.664,7.102-1.705,11.524-1.738c0.927-0.007,1.856-0.014,2.774-0.031
		c5.138-0.102,8.948-2.202,10.455-5.763c1.662-3.93,0.161-8.813-4.118-13.398c-3.886-4.164-4.895-8.47-4.543-11.112"/>
</g>
</svg>
